PathFileType	4	(X/Y/Z)	1_coords_data.trc
DataRate	CameraRate	NumFrames	NumMarkers	Units	OrigDataRate	OrigDataStartFrame	OrigNumFrames
30.0	30.0	6	21	m	30.0	47	65
Frame#	Time	THUMB_TIP	THUMB_IP	THUMB_MCP	THUMB_CMC	INDEX_TIP	INDEX_DIP	INDEX_PIP	INDEX_MCP	MIDDLE_TIP	MIDDLE_DIP	MIDDLE_PIP	MIDDLE_MCP	RING_TIP	RING_DIP	RING_PIP	RING_MCP	PINKY_TIP	PINKY_DIP	PINKY_PIP	PINKY_MCP	WRIST
X1	Y1	Z1	X2	Y2	Z2	X3	Y3	Z3	X4	Y4	Z4	X5	Y5	Z5	X6	Y6	Z6	X7	Y7	Z7	X8	Y8	Z8	X9	Y9	Z9	X10	Y10	Z10	X11	Y11	Z11	X12	Y12	Z12	X13	Y13	Z13	X14	Y14	Z14	X15	Y15	Z15	X16	Y16	Z16	X17	Y17	Z17	X18	Y18	Z18	X19	Y19	Z19	X20	Y20	Z20	X21	Y21	Z21
45	1.5333333333333266	0.49185172006591127	-0.03467410008626948	-0.17011631070159622	0.4888820553250918	-0.03517827417420871	-0.14733634362927173	0.4740581798843322	-0.038825268916393485	-0.12021122342184565	0.4742984551833102	-0.033053411059632	-0.07597867969370309	0.5535326308074668	0.03196152735577451	-0.1761919617464402	0.5376151370014324	0.03207378645433134	-0.16755362922044637	0.5173568452791983	0.027457996679050467	-0.15340068132089985	0.49636409287944694	0.0043277999932483935	-0.12445358402326301	0.573164292393754	0.061098973483698304	-0.15073426276732443	0.5581033715981087	0.055337849051056875	-0.14248937889555752	0.5345301726181771	0.0441830223052746	-0.12947847269636698	0.5052427498863945	0.018796045450113597	-0.10725469720961878	0.5804134763639657	0.05857747810541525	-0.12711861942533875	0.5654420283175486	0.05358361619261076	-0.11840557824620512	0.5449835907376889	0.04522600882751959	-0.10692591318480371	0.5162550409399789	0.022929373714997037	-0.08925527869762306	0.586551723626705	0.0491700351240113	-0.083090348989461	0.5705899056606609	0.044469820160421114	-0.07907433772019012	0.5513935531549086	0.037086291371149716	-0.0748558578882007	0.5214632988812189	0.017956744997151608	-0.06860095695874224	0.4622830810018609	-0.023011742144276925	-0.051989820119430985
46	1.5666666666666598	0.4925174452890086	-0.03516527833597871	-0.16995268118301193	0.4890449820024941	-0.03546413306068308	-0.14724029063121546	0.473952706882242	-0.03896029551089464	-0.12024362269207245	0.47421942022995617	-0.03301468627828863	-0.07603425044089362	0.553107223062806	0.031672722697290046	-0.1762356547850924	0.5371612751915158	0.03204110435662866	-0.16765713268398652	0.5167995455042915	0.027678954672028633	-0.1535723377875901	0.4957876671756557	0.00455033581517561	-0.12463785916990922	0.5731871844215289	0.060071159162188636	-0.1510644189152251	0.5579798390651559	0.05476286096435734	-0.1427844057839011	0.5341343684845976	0.0442221962816961	-0.1297576076032494	0.504673203693285	0.01909830264367096	-0.1074646118735515	0.5808572719357803	0.05667199490995167	-0.12747875241224227	0.565665012385244	0.05248970382132878	-0.11872068807135228	0.5448576432282362	0.045077005770022605	-0.10721915446212615	0.5157385705195042	0.023331187768914963	-0.08950137136021719	0.5875044616408838	0.04620475304442906	-0.0838417254084135	0.571309050532416	0.042553494422923	-0.079673156168663	0.5517607562785561	0.0362417264287177	-0.0753329032322737	0.5211393572376772	0.01832023509617975	-0.06884957691031224	0.46228308100186094	-0.023011742144276925	-0.051989820119430985
47	1.599999999999993	0.49337536119869424	-0.035411495760444556	-0.16973574225669152	0.48934831465852324	-0.035585316562526836	-0.1471137909153049	0.4739344975907651	-0.039002671335803374	-0.12028925122204559	0.47415100573711455	-0.0329526441741933	-0.07609377299670739	0.5528266742828707	0.031615045043967616	-0.1760218645683979	0.5368189609662589	0.032225765234911274	-0.167573188031712	0.5163282033689395	0.028078439528868016	-0.1536111546706328	0.49527026480805814	0.004921635571474181	-0.12473275880027712	0.5733106022020626	0.05919953871576977	-0.15102444289804512	0.5579163303642491	0.054391553751329313	-0.14278431697878757	0.5337828116785113	0.044447578085910044	-0.1298189718692006	0.5041218544051338	0.019545991068821267	-0.10754148326170199	0.5812745237980115	0.05493989894155771	-0.12747438036082392	0.5658588369529411	0.051598252615161044	-0.11874569209029862	0.5447214427018046	0.04507989353080766	-0.10730447108380414	0.5152243927469529	0.02384399905734047	-0.089593410588375	0.5882928726791619	0.04341126083684821	-0.0841618934143259	0.5719130252764228	0.040785109924021845	-0.07994242301556187	0.5520815054458084	0.03546018172084631	-0.07556429786443075	0.5208213628309512	0.018732819273812207	-0.06893992768573876	0.46228308100186094	-0.023011742144276925	-0.051989820119430985
48	1.6333333333333262	0.4941285029850233	-0.03560861595829046	-0.16952682584546547	0.48959834063743	-0.03567836606399011	-0.14699966969944456	0.4739025396595816	-0.03904137371591332	-0.12033223616719635	0.4740759194068615	-0.03291123410217356	-0.0761476084356052	0.5526056511095239	0.03177962777652754	-0.17577437846738464	0.5365457473092045	0.03252603033630608	-0.16743637072313033	0.5159546164710163	0.028482614539598217	-0.15359202341097622	0.4948630684259211	0.005273345293158593	-0.12478035014981825	0.5734036816548578	0.05871131431052756	-0.1507977771803054	0.5578675285724899	0.05425159541289637	-0.14262839196749127	0.5335227814147145	0.04470745840471724	-0.12975779428932993	0.5036764465447306	0.019959504413594398	-0.10755682608787409	0.5815301194530789	0.05378807492284077	-0.12727152169332695	0.5659527653182368	0.05106293972301579	-0.11861590638877473	0.5445838809370098	0.04518900293299033	-0.10725599327781576	0.5147889991370499	0.024323591978456793	-0.08960321790891546	0.5888405859601185	0.041287266146840085	-0.08406842949424964	0.5723525771977664	0.039418989771613844	-0.07986663101760005	0.5523203292156306	0.03486145480146263	-0.07553651152986507	0.520553846040011	0.01911071892574301	-0.06892679769139987	0.46228308100186094	-0.023011742144276925	-0.051989820119430985
49	1.6666666666666594	0.49471281398115885	-0.0358042309986667	-0.16933404210227054	0.4897499999511972	-0.035780141103843754	-0.14689813568909038	0.4738094984856227	-0.03908056867027876	-0.12036838652132154	0.4739968951545257	-0.03289916768438428	-0.0761909582989807	0.5524962276714352	0.031925729426950045	-0.17553740477993562	0.5363918175271609	0.032760058060654185	-0.1672941123772621	0.5157211039619854	0.02877381606216145	-0.15355215806079292	0.49455405126746815	0.005544436356505256	-0.12481215296827453	0.5735181760995427	0.05833126771569197	-0.15058528802471505	0.5578805580417849	0.05410680690809355	-0.14248474283536205	0.5333878014804432	0.044852067346163316	-0.12968379671143437	0.5033452969899312	0.02027520040421349	-0.10755748982900892	0.5817567255780338	0.052869041885896806	-0.1270530127113414	0.5660757825315401	0.05059225651335986	-0.11845509008200661	0.544533552864221	0.04522241657636594	-0.10717337305792107	0.5144733317577563	0.024685616858740933	-0.08958520094173394	0.589319447972386	0.03949952933377654	-0.0837437983085434	0.572759249652109	0.03821569407804892	-0.07960718149897017	0.5525789084841055	0.034270277376002856	-0.07536459544914098	0.5203792898201365	0.01936783740352388	-0.06888498961532386	0.46228308100186083	-0.023011742144276925	-0.051989820119430985
50	1.6999999999999926	0.49528705941553836	-0.03589837323001599	-0.16913889942357407	0.48992362971089454	-0.03583377194869286	-0.1467954563478573	0.47375630358269694	-0.039107949163209144	-0.12040005278147015	0.4739251746735283	-0.032895994348101754	-0.07622683578372658	0.5523752099959203	0.03216014735023631	-0.17539877284476219	0.5362473805615867	0.03300542364215442	-0.16720251603281644	0.5155400630477507	0.029005368116642227	-0.15351981198083908	0.494345439294263	0.005744641777064574	-0.1248255158907906	0.5735112619641064	0.05822070644850186	-0.1504596295493768	0.557832059063633	0.05408825899711034	-0.14239207264116294	0.5332532535026924	0.044996622381776596	-0.1296392686023563	0.5031227156779444	0.020493103478974706	-0.10755134944342537	0.5819546829287936	0.05211715362499403	-0.12687839436375214	0.5661974495111088	0.050178406578451185	-0.11833726710149206	0.5445282327257628	0.045194815266784594	-0.10712170467475846	0.5142730564477868	0.024925820410967803	-0.08955716682363712	0.5898154454718634	0.03772908794210972	-0.08332308304666647	0.5732023696261352	0.03696178307811537	-0.079271298971747	0.5528990693144731	0.03357030789645732	-0.07513778817018202	0.5202849870923846	0.019509664755875677	-0.06885261464162473	0.4622830810018609	-0.023011742144276925	-0.051989820119430985
